<svg width="88" height="88" viewBox="0 0 88 88" fill="none" xmlns="http://www.w3.org/2000/svg">
<rect width="88" height="88" rx="20" fill="#03396C"/>
<path fill-rule="evenodd" clip-rule="evenodd" d="M63.1271 59.2992C59.0489 64.0317 53.6046 67.1764 47.4501 68.2711C41.8175 69.2728 35.8712 68.4791 30.7387 65.9341C24.9169 63.0472 20.6023 57.9951 18.6741 51.7898C17.6005 48.3344 17.3213 44.6551 17.859 41.0771C18.4252 37.3096 19.8742 33.7588 22.0703 30.6481C26.7704 23.991 34.4673 19.9316 42.6359 19.9316C49.5156 19.9316 56.0474 22.7686 60.7476 27.6972L56.6285 31.839C53.0287 27.9863 48.0118 25.779 42.6358 25.779C35.2141 25.779 28.5954 29.8101 25.2566 36.4456C23.548 39.8411 22.8603 43.6654 23.346 47.4402C23.8918 51.6806 25.853 55.4607 28.7577 58.5684C32.3207 62.3805 37.9985 64.6193 43.1242 65.0635C50.2865 65.6843 56.8062 63.1157 62.0255 58.2409C62.3229 57.9632 62.7842 57.9665 63.0775 58.2484C63.3709 58.5302 63.3926 58.9911 63.1271 59.2992V59.2992Z" fill="white"/>
<path fill-rule="evenodd" clip-rule="evenodd" d="M42.8041 45.7397L46.0406 47.9557L43.4404 50.9535C43.305 51.1096 43.1301 51.1932 42.9236 51.2006C42.717 51.2079 42.5365 51.1369 42.3904 50.9908L31.0662 39.6665C30.8044 39.4049 30.7838 38.9913 31.0181 38.7045C31.2524 38.4179 31.6618 38.3561 31.9704 38.5605L42.804 45.7397H42.8041ZM48.278 40.2359L68.2861 20.1179C68.5588 19.8436 69.0002 19.8348 69.2836 20.0981C69.5671 20.3615 69.5909 20.8022 69.3374 21.0945L51.109 42.1118L48.278 40.2359V40.2359Z" fill="#6497B2"/>
<path fill-rule="evenodd" clip-rule="evenodd" d="M52.6007 45.7397L78.0826 20.1178C78.3554 19.8436 78.7968 19.8348 79.0802 20.0981C79.3636 20.3614 79.3874 20.8022 79.134 21.0944L53.237 50.9534C53.1016 51.1095 52.9266 51.1932 52.7201 51.2005C52.5136 51.2079 52.3331 51.1368 52.187 50.9907L40.8628 39.6665C40.6011 39.4047 40.5804 38.9912 40.8147 38.7045C41.049 38.4178 41.4584 38.3559 41.767 38.5605L52.6006 45.7397H52.6007Z" fill="#6497B2"/>
</svg>
